<svg xmlns="http://www.w3.org/2000/svg" viewBox="0 0 240 240" width="240" height="240">
  <defs>
    <linearGradient id="bgC" x1="0" y1="0" x2="1" y2="1">
      <stop offset="0%" stop-color="#db2777"/>
      <stop offset="100%" stop-color="#d97706"/>
    </linearGradient>
    <linearGradient id="hairC" x1="0.5" y1="0" x2="0.5" y2="1">
      <stop offset="0%" stop-color="#2a1a3a"/>
      <stop offset="100%" stop-color="#4a2d5a"/>
    </linearGradient>
  </defs>
  <circle cx="120" cy="120" r="115" fill="url(#bgC)"/>
  <path d="M45 260 Q55 180 120 172 Q185 180 195 260" fill="#2a1a3a" opacity="0.9"/>
  <path d="M92 260 L106 182 L120 195 L134 182 L148 260" fill="#fbcfe8" opacity="0.25"/>
  <rect x="103" y="152" width="34" height="30" rx="5" fill="#edd8b0" opacity="0.55"/>
  <ellipse cx="120" cy="102" rx="40" ry="46" fill="#edd8b0" opacity="0.55"/>
  <!-- Hair -->
  <path d="M80 82 Q82 55 120 50 Q158 55 160 82 Q162 72 155 62 Q143 45 120 42 Q97 45 85 62 Q78 72 80 82Z" fill="url(#hairC)"/>
  <path d="M80 82 Q78 95 80 112 L88 106 Q86 96 86 88 Q84 84 80 82Z" fill="url(#hairC)"/>
  <path d="M160 82 Q162 95 160 112 L152 106 Q154 96 154 88 Q156 84 160 82Z" fill="url(#hairC)"/>
  <!-- Eyes -->
  <ellipse cx="107" cy="100" rx="4.5" ry="3.5" fill="#2a1a3a" opacity="0.65"/>
  <ellipse cx="133" cy="100" rx="4.5" ry="3.5" fill="#2a1a3a" opacity="0.65"/>
  <path d="M100 93 Q107 90 114 93" stroke="#2a1a3a" stroke-width="1.5" fill="none" opacity="0.35"/>
  <path d="M126 93 Q133 90 140 93" stroke="#2a1a3a" stroke-width="1.5" fill="none" opacity="0.35"/>
  <path d="M120 103 L118 114 Q120 116 122 114Z" fill="#c4a882" opacity="0.45"/>
  <path d="M111 121 Q120 126 129 121" stroke="#b8967a" stroke-width="1.2" fill="none" opacity="0.45"/>
  <!-- Slight smile -->
  <path d="M111 123 Q120 128 129 123" stroke="#b8967a" stroke-width="1" fill="none" opacity="0.25"/>
</svg>
